<?xml version="1.0" encoding="utf-8"?>
<!-- Generator: Adobe Illustrator 23.0.1, SVG Export Plug-In . SVG Version: 6.00 Build 0)  -->
<svg version="1.1" xmlns="http://www.w3.org/2000/svg" xmlns:xlink="http://www.w3.org/1999/xlink" x="0px" y="0px"
	 viewBox="0 0 490.29 156" style="enable-background:new 0 0 490.29 156;" xml:space="preserve">
<style type="text/css">
	.st0{fill:#F26427;}
	.st1{fill:#1375BC;}
	.st2{fill:#1576BD;}
	.st3{fill:#1F78BE;}
	.st4{fill:#263979;}
	.st5{fill:#EF4423;}
	.st6{fill:#FFFFFF;}
</style>
<g id="Layer_1">
	<path class="st1" d="M67.63,106.03c-13.62-0.42-24.95-5.45-31.72-17.74c-7.8-14.19-4.1-29.37,8.88-39.83
		c13.89-11.19,37.56-9.6,49.6,3.33c14.41,15.47,11.59,37.32-6.29,48.6C81.96,104.26,75.65,105.98,67.63,106.03z"/>
	<path class="st0" d="M260.72,49.79c-2.39-0.65-4.23-1.19-6.1-1.65c-11.83-2.88-22.77-1.31-32.42,6.56
		c-12.21,9.96-12.2,27.42,0.05,37.3c10.39,8.38,22.09,9.68,34.62,6.08c0.72-0.21,1.4-0.53,2.12-0.74c0.93-0.27,1.88-0.48,2.9-0.73
		c-3.36,6.85-17.04,12.43-30.79,10.47c-14.32-2.04-26.53-13.87-28.57-27.48c-2.08-13.9,5.85-28.8,18.43-34.66
		C235.28,38.27,252.16,40.14,260.72,49.79z"/>
	<path class="st0" d="M268.54,92.03c-1.04,0-3.04,0-4.34,0c1.59-11.16,3.15-22.1,4.71-33.03c0.48-0.12,0.97-0.23,1.45-0.35
		c4.83,8.66,9.65,17.33,15.03,26.97c5.14-9.64,9.73-18.24,14.31-26.84c0.41,0.03,0.83,0.06,1.24,0.09c0.54,3.07,1.18,6.12,1.6,9.21
		c0.76,5.56,1.23,11.17,2.13,16.71c0.39,2.41,1.52,4.71,2.33,7.07c-5.36,1.52-6.62,0.61-7.11-5.1c-0.45-5.3-1.16-10.58-1.89-17.05
		c-1.51,1.93-2.53,2.93-3.18,4.12c-2.76,5.03-5.33,10.17-8.15,15.17c-1.93,3.43-3.09,3.39-5.09-0.1c-2.72-4.76-5.29-9.62-7.96-14.41
		c-0.57-1.02-1.27-1.98-1.91-2.96c-0.5,0.05-1.01,0.11-1.51,0.16C269.66,78.35,269.11,85.03,268.54,92.03z"/>
	<path class="st0" d="M256.29,75.25c-0.23,7.24-3.62,12.5-10.2,15.59c-8.93,4.21-20.76,1.95-25.62-4.8
		c-6.44-8.94-3.6-20.86,6.34-25.64c7.48-3.59,15.12-3.13,22.23,1C254.15,64.36,256.7,69.12,256.29,75.25z M222.6,74.4
		c-0.04,9.68,6.3,16.4,15.51,16.44c7.75,0.03,12.7-5.68,12.78-14.76c0.09-9.41-5.99-15.86-14.97-15.88
		C227.74,60.19,222.63,65.62,222.6,74.4z"/>
	<g>
		<g>
			<path d="M118.51,112.47v2.54h-10.4v-14.7h3.49v12.16H118.51z"/>
			<path d="M123.99,115.01h-3.49v-14.7h3.49V115.01z"/>
			<path d="M127.29,100.31h3.49l5.4,7.73h-1.67l5.4-7.73h3.49v14.7h-3.49v-12.35l1.76,0.04l-5.81,8.4h-1.05l-5.81-8.34l1.78-0.04
				v12.29h-3.49V100.31z"/>
			<path d="M150.23,115.01h-3.49v-14.7h3.49V115.01z"/>
			<path d="M164.36,102.85h-4.35l0.03,12.16h-3.51v-12.16h-4.32v-2.54h12.16V102.85z"/>
			<path d="M166.36,100.31h10.54v2.5h-7.05v3.53h6.65v2.5h-6.65v3.67h7.05v2.5h-10.54V100.31z"/>
			<path d="M190.68,101.19c1.26,0.58,2.23,1.42,2.9,2.53s1.01,2.42,1.01,3.95c0,1.53-0.34,2.84-1.01,3.95s-1.64,1.95-2.9,2.53
				c-1.26,0.58-2.76,0.87-4.49,0.87h-6.27v-14.7h6.27C187.93,100.31,189.42,100.6,190.68,101.19z M189.78,111.22
				c0.8-0.82,1.2-2.01,1.2-3.56c0-1.57-0.4-2.76-1.2-3.58c-0.8-0.82-2.01-1.23-3.63-1.23h-2.73v9.6h2.73
				C187.76,112.45,188.97,112.04,189.78,111.22z"/>
		</g>
	</g>
</g>
<g id="_x3C_Layer_x3E_">
	<path class="st6" d="M60.13,73.19c0-7.12-0.03-10.97-0.09-11.54c-0.03-0.96-0.2-1.67-0.49-2.13c-0.31-0.51-0.9-0.84-1.78-0.98
		c-0.53-0.11-1.22-0.16-2.06-0.16c-0.6,0.04-0.9-0.13-0.9-0.49c0-0.31,0.39-0.46,1.16-0.46c3.19,0.04,5.72,0.09,7.59,0.16
		c2.42-0.04,4.97-0.09,7.65-0.16c1.68,0,3.11,0.11,4.27,0.32c1.15,0.23,2.09,0.52,2.83,0.88c0.74,0.32,1.34,0.66,1.8,1.04
		c0.43,0.32,0.73,0.61,0.9,0.88c0.64,0.53,1.23,1.36,1.78,2.5c0.53,1.15,0.82,2.47,0.85,3.96c-0.03,3.93-1.25,7.1-3.63,9.49
		c-2.39,2.43-5.51,3.66-9.36,3.69c-0.34,0-0.71-0.02-1.11-0.05c-0.38,0-0.58-0.16-0.62-0.49c0-0.21,0.12-0.36,0.36-0.47
		c0.21-0.07,0.58-0.1,1.11-0.1c1.58,0,3.14-0.82,4.69-2.45c1.51-1.56,2.31-3.75,2.4-6.55c0-0.51-0.02-1.09-0.05-1.73
		c-0.05-0.62-0.18-1.3-0.39-2.02c-0.17-0.76-0.47-1.53-0.9-2.29c-0.45-0.76-1.04-1.47-1.78-2.13c-1-0.9-1.95-1.51-2.86-1.81
		c-0.95-0.21-1.75-0.32-2.42-0.32c-0.84,0-1.53,0.07-2.06,0.21c-0.27,0.11-0.41,0.45-0.41,1.04V82.8
		c-0.04,5.23,0.05,9.13,0.26,11.68c0.07,0.76,0.24,1.39,0.52,1.89c0.26,0.55,0.78,0.9,1.55,1.04c0.88,0.14,1.77,0.21,2.69,0.21
		c0.57,0,0.85,0.15,0.85,0.44c-0.03,0.35-0.37,0.52-1,0.52c-3.76-0.07-6.48-0.12-8.16-0.16c-1.77,0.03-3.98,0.09-6.64,0.16
		c-0.7,0-1.06-0.17-1.06-0.52c-0.04-0.29,0.24-0.44,0.82-0.44c0.82,0,1.45-0.07,1.9-0.21c0.53-0.14,0.9-0.49,1.1-1.04
		c0.22-0.5,0.37-1.15,0.44-1.97c0.17-2.5,0.26-6.36,0.26-11.59V73.19z"/>
	<path class="st1" d="M106.67,72.21c0-7.13-0.03-10.99-0.09-11.55c-0.03-0.96-0.2-1.67-0.49-2.13c-0.31-0.51-0.9-0.84-1.78-0.98
		c-0.53-0.11-1.22-0.16-2.06-0.16c-0.6,0.04-0.9-0.13-0.9-0.49c0-0.31,0.39-0.46,1.16-0.46c3.28,0.04,5.69,0.09,7.23,0.16
		c2.56-0.04,5.03-0.09,7.41-0.16c1.73,0,3.42,0.12,5.07,0.37c1.65,0.3,3.19,0.96,4.63,1.97c0.81,0.51,1.6,1.4,2.37,2.66
		c0.77,1.31,1.18,2.92,1.21,4.81c0.03,1.99-0.44,3.95-1.42,5.88c-1.05,1.99-2.89,4.09-5.53,6.3c4.6,6.14,8.41,10.92,11.43,14.34
		c1.53,1.53,2.8,2.5,3.81,2.93c1.01,0.44,1.72,0.7,2.11,0.77c0.57,0.11,1.05,0.16,1.47,0.16c0.43,0,0.64,0.15,0.64,0.44
		c0,0.34-0.33,0.52-1,0.52h-5.02c-1.44,0-2.57-0.09-3.37-0.26c-0.84-0.14-1.6-0.39-2.27-0.75c-2.08-1.19-4.48-3.86-7.21-8.02
		c-1.1-1.6-2.14-3.14-3.11-4.63c-1-1.46-1.7-2.42-2.11-2.88c-0.24-0.27-0.56-0.4-0.95-0.4l-4.58-0.11c-0.29,0-0.44,0.15-0.44,0.45
		v0.75c-0.04,5.27,0.06,9.16,0.28,11.67c0.07,0.82,0.24,1.47,0.51,1.97c0.26,0.55,0.77,0.9,1.54,1.04c0.94,0.14,1.79,0.21,2.56,0.21
		c0.43,0,0.64,0.15,0.64,0.44c0,0.35-0.35,0.52-1.05,0.52c-3.74-0.07-6.32-0.12-7.74-0.16c-1.59,0.03-3.74,0.09-6.43,0.16
		c-0.7,0-1.05-0.17-1.05-0.52c-0.04-0.29,0.24-0.44,0.82-0.44c0.82,0,1.45-0.07,1.9-0.21c0.53-0.14,0.9-0.49,1.1-1.04
		c0.22-0.5,0.37-1.15,0.44-1.97c0.17-2.5,0.26-6.36,0.26-11.59V72.21z M112.89,76.52c-0.04,0.53,0.13,0.85,0.49,0.96
		c1.24,0.37,2.57,0.56,4.02,0.56c1.01,0,1.8-0.07,2.37-0.21c0.48-0.14,0.94-0.38,1.36-0.72c0.84-0.58,1.56-1.54,2.16-2.87
		c0.6-1.31,0.92-3.08,0.95-5.29c0-1.97-0.25-3.58-0.75-4.84c-0.53-1.31-1.24-2.33-2.11-3.06c-0.81-0.76-1.67-1.3-2.57-1.62
		c-0.94-0.3-1.83-0.45-2.65-0.45c-1.32,0-2.25,0.07-2.78,0.21c-0.36,0.09-0.52,0.35-0.49,0.77V76.52z"/>
	<path class="st1" d="M147.77,72.19c0-7.12-0.03-10.97-0.09-11.54c-0.03-0.96-0.2-1.67-0.49-2.13c-0.31-0.51-0.9-0.84-1.78-0.98
		c-0.53-0.11-1.22-0.16-2.06-0.16c-0.6,0.04-0.9-0.13-0.9-0.49c0-0.31,0.39-0.46,1.16-0.46c3.2,0.04,5.73,0.09,7.61,0.16
		c4.74,0,9.15-0.02,13.2-0.05c1.05-0.11,1.8-0.21,2.27-0.32c0.27-0.11,0.56-0.18,0.85-0.21c0.21,0.04,0.31,0.2,0.31,0.48
		c-0.03,0.11-0.17,1.28-0.4,3.52c-0.07,1.13-0.16,2.32-0.28,3.58c0,0.37-0.18,0.57-0.53,0.61c-0.37,0-0.53-0.26-0.48-0.77
		c0-0.51-0.11-1.17-0.34-1.97c-0.1-0.5-0.4-0.91-0.9-1.25c-0.48-0.32-1.36-0.55-2.64-0.69c-0.6-0.07-1.82-0.12-3.64-0.16
		c-1.84-0.04-3.13-0.05-3.88-0.05c-0.24,0-0.36,0.18-0.36,0.53v13.8c-0.04,0.41,0.09,0.61,0.36,0.61c0.81,0,2.24-0.02,4.29-0.05
		c2.02,0,3.41-0.02,4.19-0.05c1.24-0.09,2.08-0.36,2.53-0.83c0.36-0.48,0.65-0.72,0.85-0.72c0.24,0,0.36,0.15,0.36,0.45
		c-0.04,0.11-0.18,1.43-0.43,3.96c-0.14,1.56-0.22,2.77-0.22,3.64c0,0.23-0.02,0.45-0.05,0.67c-0.03,0.25-0.18,0.37-0.44,0.37
		c-0.34,0-0.5-0.16-0.46-0.48c0-0.58-0.07-1.24-0.21-1.97c-0.12-0.55-0.39-1.02-0.8-1.41c-0.46-0.37-1.19-0.61-2.17-0.72
		c-0.64-0.07-1.83-0.12-3.58-0.16c-1.81,0-3.11,0-3.92,0c-0.24,0-0.35,0.18-0.31,0.53v4.31c-0.04,2.94-0.04,5.76,0,8.46
		c0,1.81,0.41,3.02,1.22,3.64c0.81,0.66,2.53,0.97,5.16,0.93c0.74,0,1.57-0.04,2.49-0.11c0.95-0.04,1.78-0.22,2.49-0.56
		c1.31-0.55,2.11-1.89,2.39-4.02c0.03-0.34,0.1-0.56,0.21-0.67c0.12-0.11,0.25-0.16,0.39-0.16c0.31,0.04,0.45,0.36,0.41,0.98
		c0,0.73-0.07,1.74-0.21,3.03c-0.14,1.35-0.29,2.35-0.46,3c-0.16,0.66-0.42,1.05-0.8,1.2c-0.4,0.14-1.09,0.21-2.07,0.21
		c-7.3-0.1-12.19-0.21-14.65-0.31c-1.77,0.03-4,0.09-6.67,0.16c-0.71,0-1.06-0.17-1.06-0.52c-0.04-0.29,0.24-0.44,0.82-0.44
		c0.82,0,1.45-0.07,1.9-0.21c0.53-0.14,0.9-0.49,1.1-1.04c0.22-0.5,0.37-1.15,0.44-1.97c0.17-2.5,0.26-6.37,0.26-11.61V72.19z"/>
	<path class="st1" d="M186.95,98.35c-2.95,0-5.52-0.47-7.69-1.41c-0.38-0.19-0.64-0.42-0.8-0.66c-0.14-0.25-0.21-0.65-0.21-1.2
		c0.03-3.46,0.13-5.83,0.28-7.12c0.03-0.92,0.24-1.4,0.61-1.44c0.29,0,0.45,0.1,0.49,0.29c0.03,0.18,0.05,0.39,0.05,0.64
		c0,0.8,0.15,1.73,0.46,2.79c0.64,1.98,1.64,3.39,3.02,4.23c1.38,0.85,2.89,1.28,4.54,1.28c2.39-0.05,4.17-0.74,5.34-2.07
		c1.15-1.28,1.73-2.66,1.73-4.15c0-0.69-0.03-1.38-0.1-2.07c-0.14-0.66-0.4-1.33-0.8-2.02c-0.65-1.36-2.07-2.91-4.25-4.63
		l-2.45-1.94c-2.84-2.32-4.86-4.52-6.06-6.59c-1.2-2.07-1.79-4.18-1.75-6.33c0-3.05,1.12-5.53,3.37-7.44
		c2.18-1.86,5.12-2.81,8.81-2.84c1.73,0,3.18,0.1,4.33,0.29c1.13,0.21,2.03,0.42,2.7,0.64c0.48,0.07,0.72,0.29,0.72,0.66
		c0,0.28-0.04,0.91-0.11,1.88c-0.07,0.99-0.11,2.53-0.11,4.61c0,1.13-0.19,1.68-0.57,1.65c-0.36,0-0.54-0.33-0.54-0.98
		c0-0.28-0.07-0.77-0.21-1.46c-0.21-0.69-0.59-1.39-1.16-2.12c-0.36-0.58-0.98-1.16-1.86-1.75c-0.88-0.56-2.17-0.87-3.89-0.93
		c-1.98,0-3.49,0.51-4.54,1.54c-1.17,1.05-1.75,2.4-1.75,4.07c-0.04,1.21,0.37,2.39,1.21,3.56c0.81,1.15,2.27,2.58,4.39,4.28
		l1.47,1.14c3.15,2.45,5.39,4.73,6.73,6.86c1.29,2.11,1.93,4.46,1.93,7.04c0,1.6-0.33,3.23-1.01,4.89c-0.77,1.7-2.09,3.23-3.95,4.57
		c-1.31,0.83-2.68,1.41-4.13,1.73C189.83,98.18,188.4,98.35,186.95,98.35L186.95,98.35z"/>
</g>
</svg>
